<svg xmlns="http://www.w3.org/2000/svg" width="860" height="190" viewBox="0 0 860 190" role="img" aria-labelledby="title desc" text-rendering="geometricPrecision" shape-rendering="geometricPrecision">
  <title id="title">Instagram @hnitch</title>
  <desc id="desc">photos , stories , and occasional proof of sunlight</desc>
  <defs>
    <linearGradient id="bg" x1="0" y1="0" x2="1" y2="1"><stop stop-color="#211526"/><stop offset=".55" stop-color="#2b1725"/><stop offset="1" stop-color="#17252c"/></linearGradient>
    <linearGradient id="ig" x1="0" y1="1" x2="1" y2="0"><stop stop-color="#ffdc80"/><stop offset=".35" stop-color="#fc5b55"/><stop offset=".68" stop-color="#c13584"/><stop offset="1" stop-color="#833ab4"/></linearGradient>
    <style>.sans{font-family:-apple-system,BlinkMacSystemFont,"Segoe UI",Helvetica,Arial,sans-serif}.arrow{animation:nudge 1.8s ease-in-out infinite}@keyframes nudge{50%{transform:translateX(5px)}}</style>
  </defs>
  <rect x="1" y="1" width="858" height="188" rx="25" fill="url(#bg)" stroke="#59304d" stroke-width="2"/>
  <circle cx="786" cy="8" r="142" fill="#c13584" opacity=".055"/>
  <circle cx="720" cy="194" r="120" fill="#ffdc80" opacity=".035"/>
  <rect x="30" y="30" width="130" height="130" rx="31" fill="url(#ig)" opacity=".13" stroke="#fc5b55" stroke-opacity=".24"/>
  <g fill="none" stroke="url(#ig)" stroke-width="6">
    <rect x="62" y="62" width="66" height="66" rx="19"/>
    <circle cx="95" cy="95" r="16"/>
  </g>
  <circle cx="116" cy="74" r="5" fill="#ffb56b"/>
  <g class="sans">
    <text x="190" y="48" fill="#ff9fcb" font-size="12" font-weight="800" letter-spacing="1.5">INSTAGRAM / PUBLIC CAMERA ROLL</text>
    <text x="188" y="94" fill="#fffaf5" font-size="31" font-weight="800">@hnitch</text>
    <text x="190" y="124" fill="#c3aabd" font-size="14.5" font-weight="600">photos , stories , and occasional proof of sunlight.</text>
    <g font-size="10.5" font-weight="800" letter-spacing=".75" text-anchor="middle">
      <rect x="190" y="143" width="78" height="25" rx="12.5" fill="#ffdc80" opacity=".1"/><text x="229" y="160" fill="#ffdc80">PHOTOS</text>
      <rect x="276" y="143" width="82" height="25" rx="12.5" fill="#c13584" opacity=".14"/><text x="317" y="160" fill="#ff9fcb">STORIES</text>
    </g>
    <rect x="690" y="70" width="132" height="48" rx="24" fill="#fffaf5" opacity=".92"/>
    <text x="723" y="99" fill="#251720" font-size="12" font-weight="800" letter-spacing=".9">OPEN</text>
    <text class="arrow" x="778" y="101" fill="#251720" font-size="18" font-weight="800">↗</text>
  </g>
</svg>
