<svg xmlns="http://www.w3.org/2000/svg" width="880" height="190" viewBox="0 0 880 190" role="img" aria-labelledby="title desc" text-rendering="geometricPrecision" shape-rendering="geometricPrecision">
  <title id="title">stalk me , but keep it legal</title>
  <desc id="desc">five approved public trails across books , films , music , presence , and photos</desc>
  <defs>
    <linearGradient id="bg" x1="0" y1="0" x2="1" y2="1">
      <stop stop-color="#171427"/><stop offset=".58" stop-color="#241a36"/><stop offset="1" stop-color="#132932"/>
    </linearGradient>
    <linearGradient id="edge" x1="0" y1="0" x2="1" y2="0">
      <stop stop-color="#b9a4ff"/><stop offset=".54" stop-color="#ff9f9a"/><stop offset="1" stop-color="#8edfd4"/>
    </linearGradient>
    <linearGradient id="eye" x1="0" y1="0" x2="1" y2="1">
      <stop stop-color="#b9a4ff"/><stop offset="1" stop-color="#8edfd4"/>
    </linearGradient>
    <style>
      .sans{font-family:-apple-system,BlinkMacSystemFont,"Segoe UI",Helvetica,Arial,sans-serif}
      .blink{animation:blink 5.4s infinite;transform-origin:95px 87px}
      @keyframes blink{0%,46%,50%,100%{transform:scaleY(1)}48%{transform:scaleY(.08)}}
    </style>
  </defs>

  <rect x="1" y="1" width="878" height="188" rx="26" fill="url(#bg)" stroke="url(#edge)" stroke-opacity=".7" stroke-width="2"/>
  <circle cx="832" cy="20" r="142" fill="#b9a4ff" opacity=".055"/>
  <circle cx="785" cy="188" r="118" fill="#8edfd4" opacity=".045"/>
  <path d="M650 0h230v190H735c18-45 2-92-85-190z" fill="#fff" opacity=".018"/>

  <rect x="32" y="30" width="126" height="130" rx="29" fill="#b9a4ff" opacity=".08" stroke="#b9a4ff" stroke-opacity=".28"/>
  <g class="blink">
    <path d="M52 87s17-24 43-24 43 24 43 24-17 24-43 24-43-24-43-24z" fill="none" stroke="url(#eye)" stroke-width="3"/>
    <circle cx="95" cy="87" r="12" fill="#8edfd4"/>
    <circle cx="99" cy="82" r="3.5" fill="#fffaf5"/>
  </g>
  <text x="95" y="140" fill="#b9a4ff" class="sans" font-size="10.5" font-weight="800" letter-spacing="1.7" text-anchor="middle">PUBLIC</text>

  <g class="sans">
    <text x="190" y="48" fill="#8edfd4" font-size="12" font-weight="800" letter-spacing="1.75">SOCIAL DIRECTORY / APPROVED CHANNELS</text>
    <text x="188" y="94" fill="#fffaf5" font-size="32" font-weight="800" letter-spacing="-.55">stalk me , but keep it legal.</text>
    <text x="190" y="124" fill="#c6bbd2" font-size="14.5" font-weight="600">on socials , go ahead. everything else? that's <tspan fill="#ff9f9a">red , red</tspan><tspan fill="#8f839d" font-size="9.5" baseline-shift="sub"> (cortis)</tspan></text>

    <g font-size="10.5" font-weight="800" letter-spacing=".75" text-anchor="middle">
      <rect x="190" y="143" width="70" height="25" rx="12.5" fill="#e9c995" opacity=".1"/><text x="225" y="160" fill="#e9c995">BOOKS</text>
      <rect x="268" y="143" width="68" height="25" rx="12.5" fill="#40bcf4" opacity=".1"/><text x="302" y="160" fill="#8fcfee">FILMS</text>
      <rect x="344" y="143" width="72" height="25" rx="12.5" fill="#fa243c" opacity=".1"/><text x="380" y="160" fill="#ff8293">MUSIC</text>
      <rect x="424" y="143" width="90" height="25" rx="12.5" fill="#5865f2" opacity=".1"/><text x="469" y="160" fill="#9ba3ff">PRESENCE</text>
      <rect x="522" y="143" width="82" height="25" rx="12.5" fill="#ff9f9a" opacity=".1"/><text x="563" y="160" fill="#ffb2ae">PHOTOS</text>
    </g>

    <path d="M690 38v114" stroke="#b9a4ff" stroke-opacity=".2" stroke-width="2"/>
    <text x="783" y="88" fill="#fffaf5" font-size="48" font-weight="800" text-anchor="middle">05</text>
    <text x="783" y="111" fill="#a99db7" font-size="10.5" font-weight="800" letter-spacing="1.6" text-anchor="middle">PUBLIC TRAILS</text>
    <g transform="translate(745 137)"><circle cx="0" cy="0" r="4" fill="#e9c995"/><circle cx="19" cy="0" r="4" fill="#40bcf4"/><circle cx="38" cy="0" r="4" fill="#fa243c"/><circle cx="57" cy="0" r="4" fill="#5865f2"/><circle cx="76" cy="0" r="4" fill="#ff9f9a"/></g>
  </g>
</svg>
